<svg version="1.1" xmlns="http://www.w3.org/2000/svg" aria-hidden="true" focusable="false">
  <symbol id="x-icon" viewBox="0 0 170.67 170.67">
    <path d="m10.673 168.93c-9.2321-4.6444-12.389-22.27-6.6883-37.339 6.1144-16.162 24.43-38.754 48.682-60.049 5.8667-5.1513 10.853-9.8164 11.081-10.367 0.66864-1.614-22.738-16.761-40.878-26.453-22.933-12.253-27.636-19.816-17.556-28.231 16.071-13.417 46.994-2.128 76.507 27.929l7.8205 7.9646 12.929-8.3902c29.553-19.178 63.252-35.414 66.585-32.081 3.6853 3.6853-0.0275 8.0726-15.821 18.696-14.311 9.6254-45.637 33.977-47.42 36.861-0.43706 0.70718 3.669 7.1149 9.1245 14.239 19.984 26.098 39.171 57.612 49.899 81.958 6.6766 15.152 6.4163 13.868 3.1628 15.609-4.4852 2.4004-7.536-0.25223-17.566-15.273-16.534-24.762-38.033-50.304-58.258-69.214l-6.9955-6.5407-3.4517 3.2074c-12.523 11.637-34.571 42.723-47.076 66.375-10.542 19.939-16.322 25.003-24.08 21.101z"/>
  </symbol>
  <symbol id="plus-icon" viewBox="0 0 128 128">
    <path d="m54.29 126.04c-6.2077-3.785-7.2903-7.794-7.2903-26.996v-17.04l-15.75-0.0056c-18.663-0.006585-22.45-0.85319-27.5-6.1471-3.624-3.7993-3.7499-4.1738-3.7463-11.139 0.0077893-15.02 4.4796-17.708 29.456-17.708h17.54l0.0056-15.75c0.008861-25.089 3.3876-31.253 17.127-31.246 14.953 0.0075863 17.175 3.5517 17.868 28.496l0.5 18 17 0.51549c23.748 0.72011 28.503 3.6089 28.496 17.311-0.00763 14.652-3.6929 16.979-27.996 17.673l-17.5 0.5-0.51549 17c-0.57157 18.85-1.2718 21.329-7.3279 25.948-4.401 3.3568-15.308 3.6713-20.366 0.58718z"/>
  </symbol>
  <symbol id="edit-icon" viewBox="0 0 170.67 170.67">
    <path d="m13.879 168.2c0.38687-0.62597 5.6723-1.5501 11.745-2.0537 20.776-1.7227 35.802-6.1479 66.758-19.66 22.935-10.011 37.242-14.609 55.268-17.762 13.575-2.3745 15.016-2.4591 15.016-0.88169 0 0.64369-4.95 1.9204-11 2.8371-14.236 2.1571-37.333 9.7116-58.985 19.293-9.472 4.1916-22.461 9.3332-28.865 11.426-16.845 5.5046-52.103 10.307-49.937 6.8018zm-5.8794-5.2011c0-6.5285 3.0215-11 6.7703-10.02 2.4116 0.63064 2.6683 1.3832 1.8911 5.5444-0.49457 2.6481-0.99571 4.8464-1.1136 4.885-0.11793 0.0387-1.8644 1.1024-3.8811 2.3641l-3.6667 2.2939zm6.0529-12.791c-1.669-1.2204-1.9733-2.0953-0.94906-2.7283 1.7472-1.0798 6.8962 1.3381 6.8962 3.2384 0 1.8484-3.0834 1.584-5.9471-0.51006zm3.7161-4.6248c-2.6619-1.6894 23.927-43.12 40.375-62.912 18.157-21.848 33.915-34.592 67.534-54.616 21.782-12.973 21.053-11.16-1.6774 4.1732-37.287 25.153-54.898 41.269-76.973 70.442-8.853 11.7-25.694 38.647-25.694 41.113 0 1.9504-1.8524 2.8851-3.5644 1.7986zm-3.5296-9.3819c-0.41836-2.0918-0.1797-7.9054 0.53034-12.919 1.3351-9.4274 2.5484-12.792 2.584-7.1664 0.04372 6.8996 2.6004 7.4099 2.7836 0.55556 0.14913-5.58 0.32467-6.0147 1.0769-2.6667 0.75064 3.3407 1.2618 2.0618 3.1016-7.7596 2.8116-15.009 5.9324-21.333 15.69-31.796l7.8759-8.4447 0.07945 5.3333c0.1198 8.0413 2.0288 9.4338 2.104 1.5348 0.1253-13.155 2.6268-18.509 13.828-29.595 10.058-9.9551 18.774-16.638 18.774-14.395 0 0.62685-0.56144 3.0974-1.2476 5.49-0.77463 2.701-0.77463 4.0579 0 3.5792 0.6862-0.4241 1.2476-1.7149 1.2476-2.8683 0-4.7473 5.773-11.262 13.384-15.104l7.7693-3.922-2.0601 6.0461c-3.049 8.9484-1.3553 8.4947 3.8533-1.0322 5.5373-10.128 10.776-13.472 28.195-17.996 13.85-3.5973 14.155-3.5017 10.23 3.2065l-2.9585 5.0569 4.1266-3.9161c3.8998-3.7009 6.0206-3.2876 2.4599 0.47933-1.3769 1.4567-1.0872 1.4924 1.6667 0.20573 8.404-3.9267-10.893 11.006-22.491 17.404-19.623 10.825-43.462 27.202-53.867 37.004-13.523 12.74-37.666 45.482-51.485 69.822-4.9093 8.6469-6.1609 9.3138-7.251 3.8634zm11.094 3.1223c0-1.4791 15.234-25.194 22.878-35.613 14.208-19.367 41.631-45.171 64.455-60.65 11-7.4597 26-18.386 33.333-24.282 14.812-11.908 15.333-12.162 15.333-7.4757 0 2.3171-1.1906 3.9148-4 5.3676-6.7433 3.4871-4.4645 4.0669 3.784 0.96269 1.2385-0.4661 1.6462 0.28007 1.3333 2.4405-0.33844 2.337-2.2768 3.8915-7.784 6.2427-6.3914 2.7286-4.8067 3.1869 3 0.86762 2.4445-0.72624 2.9703 0.462 1.3129 2.9671-1.6969 2.5648-9.3672 5.8655-15.623 6.723-3.3126 0.45405-6.023 1.3844-6.023 2.0675s1.05 0.95195 2.3333 0.59751c4.5792-1.2647 15-2.3511 15-1.5638 0 5.5088-9.1762 15.763-16.726 18.69-4.3217 1.6759-4.5518 1.9209-1.2741 1.3569l4-0.68827-4.6667 2.6123c-3.2632 1.8267-3.9158 2.6291-2.1701 2.6682 2.1078 0.04719 2.2282 0.37928 0.77298 2.1327-6.1467 7.4063-28.525 15.07-47.936 16.416l-14 0.97092 13.157 1.1051c7.2364 0.60783 16.386 0.77184 20.333 0.36448 8.5218-0.87952 8.6512-0.46971 2.2229 7.0403-5.8905 6.8817-17.267 12.449-32.952 16.126l-10.761 2.5224 8.6667-0.44857c4.7667-0.24671 9.8667-0.88248 11.333-1.4128 1.4667-0.53034 0.26667 0.61362-2.6667 2.5421-10.629 6.9883-23.582 12.797-34.175 15.328-13.415 3.204-13.98 3.6883-3.4636 2.9653 7.4441-0.51175 11.68-1.5458 20.305-4.9573 2.0622-0.81564 1.9111-0.44576-0.66667 1.6319-7.2048 5.8068-38.667 17.51-38.667 14.383z"/>
  </symbol>
  <symbol id="sort-icon" viewBox="0 0 128 128">
    <path d="m56.894 109.25c-9.9839-10.356-24.894-27.203-24.894-28.129 0-1.8645 3.8634-2.1205 32-2.1205 27.955 0 32 0.2616 32 2.0697 0 0.8829-27.465 31.855-29.409 33.165-2.349 1.5823-4.3645 0.54619-9.6969-4.9847zm-23.644-60.912c-2.2781-0.91925-1.3543-2.2095 12.587-17.581 16.797-18.519 16.62-18.365 19.593-17.179 2.3191 0.92532 30.57 31.747 30.57 33.352 0 0.47065-0.7118 1.1289-1.5818 1.4627-1.8868 0.72404-59.366 0.67208-61.168-0.05529z"/>
  </symbol>
  <symbol id="up-icon" viewBox="0 0 170.67 170.67">
    <path d="m72.694 167.62c-10.621-6.0153-11.314-8.9041-11.339-47.284l-0.021933-33.667h-20.754c-21.412 0-25.912-0.9088-25.912-5.2331 0-3.8076 63.685-79.97 67.714-80.982 1.8299-0.45927 4.7452-0.29884 6.4785 0.3565 2.8645 1.083 65.065 74.669 66.832 79.066 2.0716 5.1537-4.3228 6.7923-26.506 6.7923h-21.186l-7e-3 31c-4e-3 17.209-0.62009 33.206-1.3846 35.959-4.0596 14.617-20.693 21.48-33.914 13.992z"/>
  </symbol>
  <symbol id="down-icon" viewBox="0 0 170.67 170.67">
    <path d="m79.283 168.81c-4.1038-2.8744-62.452-73.728-63.919-77.619-2.3429-6.2123 1.0588-7.1956 24.891-7.1956h21.078v-33.465c0-28.26 0.34024-34.182 2.1876-38.075 6.0806-12.814 24.314-16.703 35.233-7.5151 8.4891 7.1431 9.1844 10.668 9.2171 46.722l0.02928 32.333h21.905c33.844 0 33.904-1.8857-1.3132 40.788-41.346 50.1-41.034 49.822-49.309 44.026z"/>
  </symbol>
</svg>
